<svg width="24" height="24" viewBox="0 0 24 24" fill="none" xmlns="http://www.w3.org/2000/svg">
<path fill-rule="evenodd" clip-rule="evenodd" d="M12.0001 -4.51567e-05C9.14798 -0.00307145 6.38807 1.00983 4.21506 2.8571C2.04204 4.70436 0.598015 7.2652 0.141828 10.0806C-0.31436 12.8959 0.247121 15.7817 1.72562 18.2207C3.20412 20.6596 5.50296 22.4922 8.21006 23.39C8.81006 23.5 9.03006 23.13 9.03006 22.81C9.03006 22.49 9.03006 21.81 9.03006 20.81C5.69006 21.53 5.03006 19.2 5.03006 19.2C4.80857 18.4746 4.33739 17.8511 3.70006 17.44C2.61006 16.7 3.78006 16.71 3.78006 16.71C4.16036 16.7647 4.52339 16.9046 4.842 17.1193C5.16062 17.3341 5.4266 17.618 5.62006 17.95C5.78287 18.2455 6.00248 18.5059 6.26626 18.7162C6.53005 18.9265 6.83281 19.0827 7.15714 19.1756C7.48147 19.2685 7.82097 19.2964 8.15613 19.2577C8.49128 19.219 8.81547 19.1144 9.11006 18.95C9.16519 18.3403 9.43444 17.77 9.87006 17.34C7.21006 17.04 4.40006 16.01 4.40006 11.41C4.38307 10.2169 4.82728 9.06342 5.64006 8.18996C5.24817 7.15863 5.26966 6.01581 5.70006 4.99995C5.70006 4.99995 6.70006 4.66995 9.00006 6.22995C10.9627 5.68326 13.0374 5.68326 15.0001 6.22995C17.3001 4.64995 18.3001 4.99995 18.3001 4.99995C18.7446 6.00224 18.7876 7.13693 18.4201 8.16996C19.2292 9.04498 19.6698 10.1983 19.6501 11.39C19.6501 16 16.8501 17.02 14.1801 17.31C14.4649 17.5997 14.6852 17.9463 14.8265 18.3272C14.9678 18.7081 15.027 19.1146 15.0001 19.52C15.0001 21.12 15.0001 22.41 15.0001 22.81C15.0001 23.21 15.2101 23.5 15.8201 23.39C18.5297 22.4914 20.8302 20.6564 22.3085 18.2143C23.7869 15.7722 24.3462 12.8831 23.8861 10.0657C23.426 7.24832 21.9765 4.68726 19.798 2.8424C17.6196 0.997544 14.8547 -0.0102613 12.0001 -4.51567e-05V-4.51567e-05Z" fill="black"/>
</svg>
