<svg width="559" height="124" viewBox="0 0 559 124" fill="none" xmlns="http://www.w3.org/2000/svg">
<g clip-path="url(#clip0_205_46)">
<path d="M153.915 11.3286L154 22.5479H118.163V124H92.8908V22.571H57.0535V11.5524C56.9582 7.77893 57.0192 3.54 57.0192 0.0118957C57.5243 0.0118744 79.2835 -0.0218873 105.701 0.0244097L153.776 0.155586L153.915 11.3286Z" fill="#007ACC"/>
<path d="M0 0H9.57484L141.606 196.623L87.044 124.194L8.00805 9.39278L7.65988 124.194H0V0Z" fill="black"/>
<path d="M238.583 15.1694C234.869 0.602515 210.715 -4.18603 187.855 3.93501C174.251 8.76827 159.523 16.3539 148.933 26.2592C136.342 38.0357 134.335 48.2863 135.162 52.5694C138.082 67.6824 158.79 77.5609 167.302 84.8903V84.9346C164.792 86.1703 146.42 95.4679 142.12 104.973C137.584 115.001 142.843 122.197 146.324 123.165C157.111 126.167 168.181 120.768 174.129 111.895C179.87 103.332 179.392 92.2743 176.897 86.7743C180.338 85.8664 184.351 85.4596 189.45 86.0549C203.837 87.7353 206.66 96.7191 206.12 100.478C205.581 104.238 202.563 106.306 201.554 106.929C200.545 107.554 200.237 107.77 200.322 108.234C200.444 108.908 200.912 108.883 201.772 108.738C202.956 108.538 209.327 105.679 209.599 98.7393C209.946 89.9279 201.502 80.0714 186.55 80.3289C180.393 80.4355 176.521 81.0208 173.724 82.0616C173.517 81.8261 173.307 81.5917 173.089 81.3597C163.846 71.498 146.759 64.522 147.483 51.2647C147.747 46.445 149.422 33.7534 180.317 18.3585C205.625 5.74758 225.885 9.21782 229.386 16.9089C234.388 27.8965 218.559 48.3186 192.276 51.2647C182.263 52.387 176.99 48.5063 175.678 47.061C174.298 45.5395 174.092 45.4708 173.576 45.7563C172.737 46.2214 173.269 47.5649 173.576 48.3658C174.361 50.4079 177.581 54.0294 183.071 55.8312C187.901 57.4162 199.658 58.2866 213.876 52.7874C229.8 46.6271 242.235 29.4919 238.583 15.1694ZM170.835 89.4041C172.028 93.8182 171.897 97.9344 170.664 101.662C170.527 102.076 170.377 102.485 170.213 102.89C170.049 103.295 169.872 103.694 169.682 104.089C168.731 106.061 167.456 107.907 165.894 109.611C161.128 114.81 154.47 116.776 151.615 115.119C148.532 113.332 150.077 106.002 155.602 100.162C161.546 93.8785 170.098 89.8385 170.098 89.8385L170.085 89.8126C170.331 89.68 170.581 89.5435 170.835 89.4041Z" fill="#CC6699"/>
<path d="M256.872 57.76V63.904H230.568V57.76H256.872ZM275.75 54.688V74.208C275.75 75.5307 276.048 76.4907 276.646 77.088C277.286 77.6427 278.352 77.92 279.846 77.92H284.326V84H278.566C275.28 84 272.763 83.232 271.014 81.696C269.264 80.16 268.39 77.664 268.39 74.208V54.688H264.23V48.736H268.39V39.968H275.75V48.736H284.326V54.688H275.75ZM323.37 65.504C323.37 66.8267 323.285 68.0213 323.114 69.088H296.17C296.383 71.904 297.429 74.1653 299.306 75.872C301.183 77.5787 303.487 78.432 306.218 78.432C310.143 78.432 312.917 76.7893 314.538 73.504H322.41C321.343 76.7467 319.402 79.4133 316.586 81.504C313.813 83.552 310.357 84.576 306.218 84.576C302.847 84.576 299.818 83.8293 297.13 82.336C294.485 80.8 292.394 78.6667 290.858 75.936C289.365 73.1627 288.618 69.9627 288.618 66.336C288.618 62.7093 289.343 59.5307 290.794 56.8C292.287 54.0267 294.357 51.8933 297.002 50.4C299.69 48.9067 302.762 48.16 306.218 48.16C309.546 48.16 312.511 48.8853 315.114 50.336C317.717 51.7867 319.743 53.8347 321.194 56.48C322.645 59.0827 323.37 62.0907 323.37 65.504ZM315.754 63.2C315.711 60.512 314.751 58.3573 312.874 56.736C310.997 55.1147 308.671 54.304 305.898 54.304C303.381 54.304 301.226 55.1147 299.434 56.736C297.642 58.3147 296.575 60.4693 296.234 63.2H315.754ZM373.238 48.16C376.011 48.16 378.486 48.736 380.662 49.888C382.881 51.04 384.609 52.7467 385.846 55.008C387.126 57.2693 387.766 60 387.766 63.2V84H380.534V64.288C380.534 61.1307 379.745 58.72 378.166 57.056C376.587 55.3493 374.433 54.496 371.702 54.496C368.971 54.496 366.795 55.3493 365.174 57.056C363.595 58.72 362.806 61.1307 362.806 64.288V84H355.574V64.288C355.574 61.1307 354.785 58.72 353.206 57.056C351.627 55.3493 349.473 54.496 346.742 54.496C344.011 54.496 341.835 55.3493 340.214 57.056C338.635 58.72 337.846 61.1307 337.846 64.288V84H330.55V48.736H337.846V52.768C339.041 51.3173 340.555 50.1867 342.39 49.376C344.225 48.5653 346.187 48.16 348.278 48.16C351.094 48.16 353.611 48.7573 355.83 49.952C358.049 51.1467 359.755 52.8747 360.95 55.136C362.017 53.0027 363.681 51.3173 365.942 50.08C368.203 48.8 370.635 48.16 373.238 48.16ZM404.346 53.92C405.583 52.2987 407.269 50.9333 409.402 49.824C411.535 48.7147 413.946 48.16 416.634 48.16C419.706 48.16 422.501 48.928 425.018 50.464C427.578 51.9573 429.583 54.0693 431.034 56.8C432.485 59.5307 433.21 62.6667 433.21 66.208C433.21 69.7493 432.485 72.928 431.034 75.744C429.583 78.5173 427.578 80.6933 425.018 82.272C422.501 83.808 419.706 84.576 416.634 84.576C413.946 84.576 411.557 84.0427 409.466 82.976C407.375 81.8667 405.669 80.5013 404.346 78.88V100.768H397.05V48.736H404.346V53.92ZM425.786 66.208C425.786 63.776 425.274 61.6853 424.25 59.936C423.269 58.144 421.946 56.8 420.282 55.904C418.661 54.9653 416.911 54.496 415.034 54.496C413.199 54.496 411.45 54.9653 409.786 55.904C408.165 56.8427 406.842 58.208 405.818 60C404.837 61.792 404.346 63.904 404.346 66.336C404.346 68.768 404.837 70.9013 405.818 72.736C406.842 74.528 408.165 75.8933 409.786 76.832C411.45 77.7707 413.199 78.24 415.034 78.24C416.911 78.24 418.661 77.7707 420.282 76.832C421.946 75.8507 423.269 74.4427 424.25 72.608C425.274 70.7733 425.786 68.64 425.786 66.208ZM447.721 36.64V84H440.425V36.64H447.721ZM454.868 66.208C454.868 62.6667 455.593 59.5307 457.044 56.8C458.537 54.0693 460.543 51.9573 463.06 50.464C465.62 48.928 468.436 48.16 471.508 48.16C474.281 48.16 476.692 48.7147 478.74 49.824C480.831 50.8907 482.495 52.2347 483.732 53.856V48.736H491.092V84H483.732V78.752C482.495 80.416 480.809 81.8027 478.676 82.912C476.543 84.0213 474.111 84.576 471.38 84.576C468.351 84.576 465.577 83.808 463.06 82.272C460.543 80.6933 458.537 78.5173 457.044 75.744C455.593 72.928 454.868 69.7493 454.868 66.208ZM483.732 66.336C483.732 63.904 483.22 61.792 482.196 60C481.215 58.208 479.913 56.8427 478.292 55.904C476.671 54.9653 474.921 54.496 473.044 54.496C471.167 54.496 469.417 54.9653 467.796 55.904C466.175 56.8 464.852 58.144 463.828 59.936C462.847 61.6853 462.356 63.776 462.356 66.208C462.356 68.64 462.847 70.7733 463.828 72.608C464.852 74.4427 466.175 75.8507 467.796 76.832C469.46 77.7707 471.209 78.24 473.044 78.24C474.921 78.24 476.671 77.7707 478.292 76.832C479.913 75.8933 481.215 74.528 482.196 72.736C483.22 70.9013 483.732 68.768 483.732 66.336ZM509.187 54.688V74.208C509.187 75.5307 509.486 76.4907 510.083 77.088C510.723 77.6427 511.79 77.92 513.283 77.92H517.763V84H512.003C508.718 84 506.2 83.232 504.451 81.696C502.702 80.16 501.827 77.664 501.827 74.208V54.688H497.667V48.736H501.827V39.968H509.187V48.736H517.763V54.688H509.187ZM556.808 65.504C556.808 66.8267 556.722 68.0213 556.552 69.088H529.608C529.821 71.904 530.866 74.1653 532.744 75.872C534.621 77.5787 536.925 78.432 539.656 78.432C543.581 78.432 546.354 76.7893 547.976 73.504H555.847C554.781 76.7467 552.84 79.4133 550.024 81.504C547.25 83.552 543.794 84.576 539.656 84.576C536.285 84.576 533.256 83.8293 530.568 82.336C527.922 80.8 525.832 78.6667 524.296 75.936C522.802 73.1627 522.056 69.9627 522.056 66.336C522.056 62.7093 522.781 59.5307 524.232 56.8C525.725 54.0267 527.794 51.8933 530.44 50.4C533.128 48.9067 536.2 48.16 539.656 48.16C542.984 48.16 545.949 48.8853 548.552 50.336C551.154 51.7867 553.181 53.8347 554.632 56.48C556.082 59.0827 556.808 62.0907 556.808 65.504ZM549.192 63.2C549.149 60.512 548.189 58.3573 546.312 56.736C544.434 55.1147 542.109 54.304 539.336 54.304C536.818 54.304 534.664 55.1147 532.872 56.736C531.08 58.3147 530.013 60.4693 529.672 63.2H549.192Z" fill="black"/>
</g>
<defs>
<clipPath id="clip0_205_46">
<rect width="559" height="124" fill="white"/>
</clipPath>
</defs>
</svg>
