<svg width="578" height="578" viewBox="0 0 578 578" fill="none" xmlns="http://www.w3.org/2000/svg">
<circle cx="289" cy="289" r="289" fill="url(#paint0_linear_203_45)"/>
<g clip-path="url(#clip0_203_45)">
<path d="M481.783 121.4L482.092 162.401H352.141V533.159H260.502V162.486H130.551V122.218C130.206 108.428 130.427 92.937 130.427 80.0435C132.259 80.0434 211.16 79.92 306.953 80.0892L481.278 80.5686L481.783 121.4Z" fill="#007ACC"/>
<path d="M482.072 131.055C469.566 82.0279 388.24 65.9113 311.269 93.2439C265.463 109.511 215.874 135.042 180.218 168.379C137.824 208.015 131.063 242.515 133.85 256.93C143.679 307.796 213.404 341.043 242.066 365.712V365.86C233.614 370.019 171.756 401.312 157.278 433.303C142.003 467.054 159.71 491.273 171.432 494.531C207.753 504.633 245.025 486.464 265.054 456.601C284.382 427.781 282.775 390.564 274.374 372.052C285.961 368.997 299.47 367.628 316.638 369.631C365.082 375.287 374.586 405.523 372.77 418.176C370.953 430.831 360.793 437.789 357.394 439.887C353.997 441.989 352.959 442.716 353.245 444.278C353.658 446.549 355.231 446.464 358.127 445.973C362.115 445.302 383.566 435.681 384.481 412.323C385.649 382.666 357.218 349.493 306.876 350.359C286.143 350.718 273.107 352.688 263.69 356.191C262.993 355.398 262.285 354.61 261.553 353.829C230.429 320.638 172.896 297.159 175.336 252.539C176.223 236.318 181.864 193.602 285.888 141.789C371.101 99.3444 439.318 111.024 451.108 136.909C467.947 173.89 414.649 242.624 326.156 252.539C292.44 256.316 274.686 243.256 270.27 238.391C265.621 233.27 264.928 233.039 263.192 234C260.365 235.566 262.157 240.087 263.192 242.782C265.835 249.656 276.677 261.844 295.162 267.909C311.424 273.243 351.009 276.172 398.883 257.664C452.5 236.93 494.371 179.259 482.072 131.055ZM253.961 380.903C257.978 395.76 257.538 409.613 253.387 422.16C252.926 423.553 252.419 424.931 251.868 426.293C251.316 427.654 250.72 428.999 250.079 430.327C246.878 436.963 242.583 443.178 237.324 448.913C221.278 466.41 198.861 473.026 189.248 467.452C178.867 461.437 184.067 436.767 202.67 417.11C222.684 395.963 251.48 382.366 251.48 382.366L251.437 382.278C252.263 381.832 253.106 381.373 253.961 380.903Z" fill="#CC6699"/>
<path d="M351.352 294.487H260.589V528.926H351.352V294.487Z" fill="#007ACC"/>
<path d="M103 80H135.767L587.612 751.925L400.886 504.411L130.406 112.098L129.214 504.411H103V80Z" fill="black"/>
</g>
<defs>
<linearGradient id="paint0_linear_203_45" x1="578" y1="0" x2="0" y2="578" gradientUnits="userSpaceOnUse">
<stop stop-color="#0F2027"/>
<stop offset="1" stop-color="#2C5364"/>
</linearGradient>
<clipPath id="clip0_203_45">
<rect width="382" height="418" fill="white" transform="translate(103 80)"/>
</clipPath>
</defs>
</svg>
